<svg width="120" height="120" xmlns="http://www.w3.org/2000/svg" viewBox="0 0 800 800">
  <path d="M66.7,400C66.7,215.9,215.9,66.7,400,66.7S733.3,215.9,733.3,400,584.1,733.3,400,733.3,66.7,584.1,66.7,400ZM400,200A133.4,133.4,0,1,0,533.3,333.3,133.3,133.3,0,0,0,400,200ZM570.4,533.2c25.2,16.3,24,51.8,1,71.1a266.7,266.7,0,0,1-341.9.8c-23.2-19.4-24.4-55,1-71.4a156.6,156.6,0,0,1,25.8-13.4C293.8,504.8,341.8,500,400,500s106.7,4.5,144.4,19.8A167.2,167.2,0,0,1,570.4,533.2Z" fill="#c4c4c4" fill-rule="evenodd"/>
</svg>